<svg xmlns="http://www.w3.org/2000/svg" xmlns:xlink="http://www.w3.org/1999/xlink" width="400" height="400" viewBox="0 0 400 400" fill="none"><path d="M47.73 89.1C46.13 89.1 44.63 89.9 43.83 91.3L9.13 149.7C-8.27002 179 13.43 215.6 48.23 215.6L57.73 215.6C59.33 215.6 60.83 214.8 61.63 213.4L131.53 95.6C133.23 92.7 131.13 89 127.63 89L47.73 89L47.73 89.1ZM167.83 89.1C164.63 89.1 161.63 90.8 160.03 93.5L76.73 233.9C75.13 236.6 75.13 240 76.73 242.7L115.23 307.6C116.93 310.5 121.33 310.5 123.03 307.6L245.13 102.3C248.63 96.4 244.23 89.1 237.33 89.1L167.83 89.1ZM285.33 89.1C282.13 89.1 279.13 90.8 277.53 93.5L194.23 233.8C192.63 236.5 192.63 239.9 194.23 242.6L232.73 307.5C234.43 310.4 238.83 310.4 240.53 307.5L362.63 102.3C366.13 96.4 361.73 89.1 354.83 89.1L285.33 89.1ZM341.73 183.5C340.13 183.5 338.63 184.3 337.83 185.7L267.93 303.5C266.23 306.4 268.33 310.1 271.83 310.1L328.33 310.1C344.43 310.1 359.43 301.7 367.43 288.1L390.43 249.4C407.83 220.1 386.13 183.5 351.33 183.5L341.73 183.5Z"   fill="#0C7AF7" ></path></svg>